<svg width="78" height="78" viewBox="0 0 78 78" fill="none" xmlns="http://www.w3.org/2000/svg">
<rect width="78" height="78" rx="39" fill="#F75655"/>
<g clip-path="url(#clip0_4827_10122)">
<g filter="url(#filter0_d_4827_10122)">
<g filter="url(#filter1_i_4827_10122)">
<path d="M16 74.1823C16 76.2909 17.7183 78 19.8382 78H53.106C55.226 78 56.9443 76.2909 56.9443 74.1823V25.8177C56.9443 23.7091 55.226 22 53.106 22H30.0748L16 35.9995V74.1805V74.1823Z" fill="white"/>
</g>
<path d="M28.7947 34.7266L16 47.2876V35.9997L17.28 34.7266H28.7947Z" fill="#F65655" fill-opacity="0.15"/>
<path d="M30.0748 22V32.1818C30.0748 34.2905 28.3565 35.9995 26.2365 35.9995H16L30.0748 22Z" fill="#F77A79"/>
</g>
</g>
<g filter="url(#filter2_d_4827_10122)">
<path d="M57.7015 64.1587C65.388 60.9918 69.0382 52.2267 65.8543 44.5812C62.6704 36.9357 53.8582 33.3051 46.1716 36.4719C38.4851 39.6388 34.8349 48.4039 38.0188 56.0494C41.2027 63.6949 50.0149 67.3255 57.7015 64.1587Z" fill="#F65655"/>
<path d="M65.392 44.7717C68.469 52.1606 64.9421 60.6347 57.5093 63.6971C50.0764 66.7594 41.5581 63.2479 38.4811 55.8589C35.4041 48.47 38.931 39.9959 46.3639 36.9335C53.7967 33.8712 62.315 37.3828 65.392 44.7717Z" stroke="white"/>
</g>
<path fill-rule="evenodd" clip-rule="evenodd" d="M59.8978 53.248L55.4048 45.1606C54.357 43.2746 51.6447 43.2746 50.5969 45.1606L46.1039 53.248C45.0856 55.0809 46.411 57.3335 48.5079 57.3335H57.4939C59.5907 57.3335 60.9161 55.0809 59.8978 53.248ZM53.0009 51.6043C52.6212 51.6043 52.3134 51.2965 52.3134 50.9168V48.1668C52.3134 47.7871 52.6212 47.4793 53.0009 47.4793C53.3806 47.4793 53.6884 47.7871 53.6884 48.1668V50.9168C53.6884 51.2965 53.3806 51.6043 53.0009 51.6043ZM53.0009 54.5835C53.5071 54.5835 53.9175 54.1731 53.9175 53.6668C53.9175 53.1606 53.5071 52.7502 53.0009 52.7502C52.4946 52.7502 52.0842 53.1606 52.0842 53.6668C52.0842 54.1731 52.4946 54.5835 53.0009 54.5835Z" fill="white"/>
<defs>
<filter id="filter0_d_4827_10122" x="12" y="22" width="48.9453" height="64" filterUnits="userSpaceOnUse" color-interpolation-filters="sRGB">
<feFlood flood-opacity="0" result="BackgroundImageFix"/>
<feColorMatrix in="SourceAlpha" type="matrix" values="0 0 0 0 0 0 0 0 0 0 0 0 0 0 0 0 0 0 127 0" result="hardAlpha"/>
<feOffset dy="4"/>
<feGaussianBlur stdDeviation="2"/>
<feColorMatrix type="matrix" values="0 0 0 0 0 0 0 0 0 0 0 0 0 0 0 0 0 0 0.25 0"/>
<feBlend mode="normal" in2="BackgroundImageFix" result="effect1_dropShadow_4827_10122"/>
<feBlend mode="normal" in="SourceGraphic" in2="effect1_dropShadow_4827_10122" result="shape"/>
</filter>
<filter id="filter1_i_4827_10122" x="16" y="22" width="40.9453" height="60" filterUnits="userSpaceOnUse" color-interpolation-filters="sRGB">
<feFlood flood-opacity="0" result="BackgroundImageFix"/>
<feBlend mode="normal" in="SourceGraphic" in2="BackgroundImageFix" result="shape"/>
<feColorMatrix in="SourceAlpha" type="matrix" values="0 0 0 0 0 0 0 0 0 0 0 0 0 0 0 0 0 0 127 0" result="hardAlpha"/>
<feOffset dy="4"/>
<feGaussianBlur stdDeviation="7.95"/>
<feComposite in2="hardAlpha" operator="arithmetic" k2="-1" k3="1"/>
<feColorMatrix type="matrix" values="0 0 0 0 0.964706 0 0 0 0 0.337255 0 0 0 0 0.333333 0 0 0 0.19 0"/>
<feBlend mode="normal" in2="shape" result="effect1_innerShadow_4827_10122"/>
</filter>
<filter id="filter2_d_4827_10122" x="32.8672" y="35.3276" width="34.1367" height="29.9756" filterUnits="userSpaceOnUse" color-interpolation-filters="sRGB">
<feFlood flood-opacity="0" result="BackgroundImageFix"/>
<feColorMatrix in="SourceAlpha" type="matrix" values="0 0 0 0 0 0 0 0 0 0 0 0 0 0 0 0 0 0 127 0" result="hardAlpha"/>
<feOffset dx="-4"/>
<feComposite in2="hardAlpha" operator="out"/>
<feColorMatrix type="matrix" values="0 0 0 0 0.964706 0 0 0 0 0.337255 0 0 0 0 0.333333 0 0 0 0.15 0"/>
<feBlend mode="normal" in2="BackgroundImageFix" result="effect1_dropShadow_4827_10122"/>
<feBlend mode="normal" in="SourceGraphic" in2="effect1_dropShadow_4827_10122" result="shape"/>
</filter>
<clipPath id="clip0_4827_10122">
<rect width="51" height="56" fill="white" transform="translate(16 22)"/>
</clipPath>
</defs>
</svg>
