<svg width="78" height="78" viewBox="0 0 78 78" fill="none" xmlns="http://www.w3.org/2000/svg">
<rect width="78" height="78" rx="39" fill="#BFC8D8"/>
<g clip-path="url(#clip0_4827_10153)">
<g filter="url(#filter0_d_4827_10153)">
<g filter="url(#filter1_i_4827_10153)">
<path d="M16 74.1823C16 76.2909 17.7183 78 19.8382 78H53.106C55.226 78 56.9443 76.2909 56.9443 74.1823V25.8177C56.9443 23.7091 55.226 22 53.106 22H30.0748L16 35.9995V74.1805V74.1823Z" fill="white"/>
</g>
<path d="M28.7947 34.7266L16 47.2876V35.9997L17.28 34.7266H28.7947Z" fill="#BFC8D8" fill-opacity="0.12"/>
<path d="M30.0748 22V32.1818C30.0748 34.2905 28.3565 35.9995 26.2365 35.9995H16L30.0748 22Z" fill="#ACB7CB"/>
</g>
</g>
<g filter="url(#filter2_d_4827_10153)">
<path d="M57.7015 64.1587C65.388 60.9918 69.0382 52.2267 65.8543 44.5812C62.6704 36.9357 53.8582 33.3051 46.1716 36.4719C38.4851 39.6388 34.8349 48.4039 38.0188 56.0494C41.2027 63.6949 50.0149 67.3255 57.7015 64.1587Z" fill="#BFC8D8"/>
<path d="M65.392 44.7717C68.469 52.1606 64.9421 60.6347 57.5093 63.6971C50.0764 66.7594 41.5581 63.2479 38.4811 55.8589C35.4041 48.47 38.931 39.9959 46.3639 36.9335C53.7967 33.8712 62.315 37.3828 65.392 44.7717Z" stroke="white"/>
</g>
<path d="M46.1057 48.2535L49.456 41.5528C49.6254 41.214 49.9717 41 50.3505 41H54.7892C55.6026 41 56.0757 41.9194 55.603 42.5812L52.4621 46.9785C52.0886 47.5014 52.2981 48.2357 52.8912 48.4828L56.1874 49.8563C56.8858 50.1472 57.0206 51.0784 56.4334 51.5554L51.363 55.6751C50.7095 56.2061 49.7324 55.7411 49.7324 54.899V52.5C49.7324 52.1852 49.5842 51.8889 49.3324 51.7L46.4001 49.5007C46.0135 49.2108 45.8895 48.6858 46.1057 48.2535Z" fill="white"/>
<defs>
<filter id="filter0_d_4827_10153" x="12" y="22" width="48.9453" height="64" filterUnits="userSpaceOnUse" color-interpolation-filters="sRGB">
<feFlood flood-opacity="0" result="BackgroundImageFix"/>
<feColorMatrix in="SourceAlpha" type="matrix" values="0 0 0 0 0 0 0 0 0 0 0 0 0 0 0 0 0 0 127 0" result="hardAlpha"/>
<feOffset dy="4"/>
<feGaussianBlur stdDeviation="2"/>
<feColorMatrix type="matrix" values="0 0 0 0 0 0 0 0 0 0 0 0 0 0 0 0 0 0 0.25 0"/>
<feBlend mode="normal" in2="BackgroundImageFix" result="effect1_dropShadow_4827_10153"/>
<feBlend mode="normal" in="SourceGraphic" in2="effect1_dropShadow_4827_10153" result="shape"/>
</filter>
<filter id="filter1_i_4827_10153" x="16" y="22" width="40.9453" height="60" filterUnits="userSpaceOnUse" color-interpolation-filters="sRGB">
<feFlood flood-opacity="0" result="BackgroundImageFix"/>
<feBlend mode="normal" in="SourceGraphic" in2="BackgroundImageFix" result="shape"/>
<feColorMatrix in="SourceAlpha" type="matrix" values="0 0 0 0 0 0 0 0 0 0 0 0 0 0 0 0 0 0 127 0" result="hardAlpha"/>
<feOffset dy="4"/>
<feGaussianBlur stdDeviation="7.95"/>
<feComposite in2="hardAlpha" operator="arithmetic" k2="-1" k3="1"/>
<feColorMatrix type="matrix" values="0 0 0 0 0.472937 0 0 0 0 0.557324 0 0 0 0 0.705 0 0 0 0.11 0"/>
<feBlend mode="normal" in2="shape" result="effect1_innerShadow_4827_10153"/>
</filter>
<filter id="filter2_d_4827_10153" x="32.8672" y="35.3276" width="34.1367" height="29.9756" filterUnits="userSpaceOnUse" color-interpolation-filters="sRGB">
<feFlood flood-opacity="0" result="BackgroundImageFix"/>
<feColorMatrix in="SourceAlpha" type="matrix" values="0 0 0 0 0 0 0 0 0 0 0 0 0 0 0 0 0 0 127 0" result="hardAlpha"/>
<feOffset dx="-4"/>
<feComposite in2="hardAlpha" operator="out"/>
<feColorMatrix type="matrix" values="0 0 0 0 0.472937 0 0 0 0 0.557324 0 0 0 0 0.705 0 0 0 0.19 0"/>
<feBlend mode="normal" in2="BackgroundImageFix" result="effect1_dropShadow_4827_10153"/>
<feBlend mode="normal" in="SourceGraphic" in2="effect1_dropShadow_4827_10153" result="shape"/>
</filter>
<clipPath id="clip0_4827_10153">
<rect width="51" height="56" fill="white" transform="translate(16 22)"/>
</clipPath>
</defs>
</svg>
